<svg width="142" height="142" viewBox="0 0 142 142" fill="none" xmlns="http://www.w3.org/2000/svg">
<path d="M28.4 28.0876C28.4 20.3131 34.7545 13.7314 42.813 14.2284C74.3867 16.1738 102.077 26.7954 123.767 47.5061C129.923 53.3778 128.709 62.9699 122.326 67.8689L120.593 69.2037L117.775 66.0726L117.725 66.0229C96.8795 44.6164 66.669 32.0494 34.5841 32.0494H28.4V28.0876V28.0876ZM28.4 39.1423V117.15C28.4 125.897 38.3826 130.91 45.4045 125.677L56.8213 117.171V117.185C56.8213 119.069 57.5693 120.874 58.9008 122.206C60.2324 123.537 62.0383 124.285 63.9213 124.285C65.8043 124.285 67.6102 123.537 68.9418 122.206C70.2733 120.874 71.0213 119.069 71.0213 117.185V102.971C71.0285 102.071 71.3775 101.207 71.9975 100.554C72.6176 99.9018 73.4626 99.5091 74.3613 99.4559C75.26 99.4026 76.1453 99.6928 76.8381 100.268C77.531 100.843 77.9795 101.659 78.0929 102.552V106.528C78.0929 108.411 78.8409 110.217 80.1724 111.549C81.5039 112.88 83.3099 113.628 85.1929 113.628C87.0759 113.628 88.8818 112.88 90.2134 111.549C91.5449 110.217 92.2929 108.411 92.2929 106.528V90.6386C98.1504 86.3431 107.103 79.5342 114.942 73.5418L112.592 70.9219C93.1449 50.9851 64.823 39.1423 34.577 39.1423H28.4ZM58.5608 58.6105C58.5603 59.3075 58.4226 59.9975 58.1554 60.6412C57.8883 61.285 57.497 61.8698 57.0038 62.3623C56.5107 62.8547 55.9253 63.2453 55.2813 63.5116C54.6372 63.7779 53.947 63.9147 53.25 63.9142C52.553 63.9137 51.863 63.776 51.2193 63.5088C50.5755 63.2417 49.9907 62.8504 49.4982 62.3572C49.0058 61.8641 48.6152 61.2788 48.3489 60.6347C48.0826 59.9906 47.9458 59.3004 47.9463 58.6034C47.9463 57.1958 48.5055 55.8459 49.5008 54.8506C50.4961 53.8553 51.846 53.2961 53.2536 53.2961C54.6611 53.2961 56.011 53.8553 57.0063 54.8506C58.0016 55.8459 58.5608 57.1958 58.5608 58.6034V58.6105ZM79.6833 72.8105C79.6833 74.2181 79.1241 75.568 78.1288 76.5633C77.1335 77.5586 75.7836 78.1177 74.376 78.1177C72.9685 78.1177 71.6186 77.5586 70.6233 76.5633C69.628 75.568 69.0688 74.2181 69.0688 72.8105C69.0688 71.4029 69.628 70.053 70.6233 69.0577C71.6186 68.0624 72.9685 67.5032 74.376 67.5032C75.7836 67.5032 77.1335 68.0624 78.1288 69.0577C79.1241 70.053 79.6833 71.4029 79.6833 72.8105V72.8105ZM58.6176 90.5747C58.6176 91.9898 58.0555 93.3469 57.0548 94.3476C56.0542 95.3482 54.6971 95.9104 53.2819 95.9104C51.8668 95.9104 50.5097 95.3482 49.5091 94.3476C48.5084 93.3469 47.9463 91.9898 47.9463 90.5747C47.9463 89.1596 48.5084 87.8025 49.5091 86.8018C50.5097 85.8012 51.8668 85.239 53.2819 85.239C54.6971 85.239 56.0542 85.8012 57.0548 86.8018C58.0555 87.8025 58.6176 89.1596 58.6176 90.5747V90.5747Z" fill="#F7C901"/>
</svg>
